# xmcd
#
# Track frame offsets: 
#        150
#        16105
#        30772
#        41077
#        51470
#        64067
#        76030
#        87605
#        96860
#        109080
#        123012
#        135867
#        151507
#        166357
#
# Disc length: 2352 seconds
#
# Revision: 1
# Processed by: cddbd v1.4PL0 Copyright (c) Steve Scherf et al.
# Submitted via: ExactAudioCopy v0.95a4
#
DISCID=9a092e0e
DTITLE=The Jeanette Williams Band - Too Blue
DYEAR=2002
DGENRE=Bluegrass
TTITLE0=Too Blue
TTITLE1=I Ought To Know You
TTITLE2=What You Gonna Do
TTITLE3=Stormy Waters
TTITLE4=Just One Year Ago
TTITLE5=Don't Tell Me Stories
TTITLE6=Things I Wish I'd Said
TTITLE7=Squirril Tail
TTITLE8=Feeling Mighty Fine
TTITLE9=Carolina Time
TTITLE10=I Want To Go Where No One Knows Me
TTITLE11=Mountain Way of Life
TTITLE12=The Blind Begger
TTITLE13=Love Grown Cold
EXTD=
EXTT0=
EXTT1=
EXTT2=
EXTT3=
EXTT4=
EXTT5=
EXTT6=
EXTT7=
EXTT8=
EXTT9=
EXTT10=
EXTT11=
EXTT12=
EXTT13=
PLAYORDER=
